<svg width="1080" height="1920" viewBox="0 0 1080 1920" fill="none" xmlns="http://www.w3.org/2000/svg">
<g clip-path="url(#clip0_1_3)">
<rect width="1080" height="1920" fill="white"/>
<g clip-path="url(#clip1_1_3)">
<path d="M1571.05 0.43H-183.58V1920.43H1571.05V0.43Z" fill="#0A2647"/>
<path d="M1571.06 0.43V1920.43H390.19C390.19 1920.43 398.56 1899.37 407.98 1892.04C417.4 1884.72 392.29 1861.7 399.09 1852.29C405.89 1842.87 428.99 1771.76 410.13 1779.04C410.44 1778.29 422.53 1749.52 417.38 1731.97C417.38 1731.97 429.95 1667.1 442.5 1659.78C455.06 1652.45 441.46 1631.53 447.74 1627.34C454.01 1623.16 454.01 1590.98 454.01 1590.98C454.01 1590.98 464.78 1579.6 456.64 1570.41C456.64 1570.41 453.06 1565.94 449.48 1566.83C445.9 1567.73 433.38 1590.98 433.38 1590.98V1582.04L394.49 1639.05C397.53 1683.45 378.51 1691.8 378.51 1691.8L371.14 1718.35L378.51 1737.52C378.51 1737.52 377.04 1758.17 360.81 1752.27C344.58 1746.37 360.81 1789.15 360.81 1789.15V1820.12C360.81 1831.92 325.41 1885.02 325.41 1885.02C325.41 1885.02 337.21 1907.15 325.41 1905.68C313.61 1904.2 309.18 1920.43 309.18 1920.43H5.34006C5.34006 1920.43 -9.40994 1899.78 -22.6899 1890.92C-35.9599 1882.07 -38.9099 1857 -38.9099 1857C-50.7099 1849.62 -38.9099 1806.85 -38.9099 1806.85C-68.4099 1769.97 -46.2899 1761.12 -46.2899 1761.12V1739C-46.2899 1739 -74.3099 1725.72 -75.7899 1710.97C-77.2599 1696.22 -120.04 1671.15 -120.04 1671.15L-139.22 1644.59L-145.12 1631.32V1609.19L-177.62 1590.98L-171.67 1564.94L-183.57 1483.82V1069.69L-147.18 1077.57L-117.64 1059.85L-86.1399 1050L-64.4799 1018.5C8.38005 1005.7 53.6601 1052.95 53.6601 1052.95C169.84 1066.74 248.25 991.73 248.25 991.73C333.75 935.29 396.59 764.61 396.59 764.61C396.59 764.61 397.45 747.75 403.5 750.34C409.56 752.94 424.68 662.16 430.3 653.52C435.92 644.87 453.64 541.14 456.24 519.09C458.83 497.05 467.04 519.52 467.04 519.52C493.1 543.47 495.21 427.98 495.21 427.98V421.91L516.85 405.04V392.39L522.88 380.95L515.85 374.32V366.09L521.87 364.28V354.24L530.1 352.23L532.51 333.76L557.21 294L571.06 259.52L574.45 246.92L585.59 223.66V212.52L590.44 207.19L593.83 169.88C593.83 169.88 597.71 159.7 610.3 166.97C622.9 174.24 634.05 134.99 634.05 134.99V119L638.41 96.71L632.59 77.82L640.83 65.22V43.9L649.07 32.76L656.82 34.69L660.7 22.58V8.53L682.98 0.43H1571.06Z" fill="#050D1A" stroke="#666666" stroke-width="0.85" stroke-miterlimit="10"/>
<path d="M735.83 478.66L720.73 481.53V490.16L703.54 500.87L693.74 515.58L679.38 531.34L675.89 535.16L664.67 547.45L649.26 550.95V556.9H640.86L636.3 560.4L629.3 563.56L632.1 569.86H619.15L623.7 592.62L616.7 612.23L623.7 617.83L617.4 654.6L621.25 699.07L616.81 726.37L606.98 756.79L615.09 775.03L612.66 801.39C612.66 801.39 617.53 855.73 616.71 856.95C615.9 858.16 604.14 881.68 601.71 888.58C599.28 895.47 595.22 931.56 595.22 931.56L592.38 980.22L574.95 1015.5L575.35 1028.08L588.73 1051.19V1071.06L581.03 1084.85L577.79 1118.1L571.7 1124.59L565.76 1124.99L556.82 1144.67V1162.56L544.3 1177.76V1195.65L515.68 1238.58V1261.84L508.52 1280.62L515.68 1311.03L503.15 1331.6V1365.59L508.52 1380.79L503.15 1399.58L490.63 1413.89L494.21 1421.94L484.37 1436.25V1461.29C465.59 1489.02 466.48 1517.64 466.48 1517.64V1535.53L456.65 1556.99V1570.41C456.65 1570.41 453.07 1565.94 449.49 1566.83C445.91 1567.73 433.39 1590.98 433.39 1590.98V1582.04L423.55 1550.73C423.55 1550.73 428.02 1535.53 427.13 1528.37C426.24 1521.22 354.68 1301.19 354.68 1301.19L335.9 1289.56L340.37 1262.73L330.53 1252L324.27 1201.02C324.27 1201.02 296.55 1138.41 296.55 1133.94C296.55 1129.47 248.25 991.73 248.25 991.73C333.75 935.29 396.59 764.61 396.59 764.61C396.59 764.61 397.45 747.75 403.5 750.34C409.56 752.94 424.68 662.16 430.3 653.52C435.92 644.87 453.64 541.14 456.24 519.09C458.83 497.05 467.04 519.52 467.04 519.52C493.1 543.47 495.21 427.98 495.21 427.98L519.15 432.21L523.38 424.46L552.95 421.65L559.99 435.73L571.26 439.25L583.23 436.43L588.16 428.69L602.24 431.5L601.54 420.94L610.69 414.6L619.14 366.02L625.48 371.65L634.63 380.1L633.23 368.83H648.01L659.98 361.09V348.41L667.73 354.75L689.83 345L704.92 361.16L702.41 366.91L708.88 374.1H725.41L726.48 391.71L733.67 393.5L734.39 417.94L723.25 446.68L735.83 478.66Z" stroke="#666666" stroke-width="0.85" stroke-miterlimit="10"/>
<path d="M410.14 1779.04L410.13 1779.05" stroke="#666666" stroke-width="0.85" stroke-miterlimit="10"/>
<path d="M447.74 1627.34L760.41 1682.97L883.25 1582.12L950.48 1461.87L1157.36 1416.61L1201.32 1311.88L1291.83 1254.99L1013.84 935.62L1558.19 762.36L1571.05 748.14V664.09H1560.77L1543.96 609.79L1571.05 602.03L1483.19 324.04L973.76 666.68L964.7 678.32L848.34 657.63L823.77 630.48L790.15 607.2L782.76 614.16L768.97 608.74L759.37 615.15L750.01 586.58L744.6 567.87L727.11 566.88L728.34 559L720.22 553.59V547.19H705.44L703.97 542.75L691.65 544.97L683.53 541.77L683.04 535.37L675.89 535.15" stroke="#666666" stroke-width="0.85" stroke-miterlimit="10"/>
<path d="M689.83 345L688.31 330.26L701.88 324.04L724.17 306.52L720.78 289.07H727.08L727.56 284.23H733.86L740.16 287.14L748.4 273.08L739.67 263.39L719.81 256.61V248.86L727.56 242.07V224.15L733.86 224.63L735.8 214.21H745.97L753.73 197.5L785.22 189.26L797.82 194.11L806.06 184.9L839.97 192.65L837.55 182.48L834.16 176.66H823.01L817.68 168.43H808.48V161.64L824.95 144.2L840.94 137.42L840.46 130.15L842.4 121.91L849.18 118.52L863.23 124.33L870.01 119.97L870.98 103.01L884.55 92.84L891.33 76.85L898.6 71.52L889.88 62.31L893.76 37.12L882.13 34.69V28.39L875.34 18.7L882.13 6.59L877.28 0.43H682.98" stroke="#666666" stroke-width="0.85" stroke-miterlimit="10"/>
<path d="M617.39 654.6L577.4 645.27L572.66 614.48H558.45H545.82L526.08 601.06L488.98 627.83L478.72 654.6V665.8L464.51 676.85V692.64L471.61 703.69L451.88 721.06L463.72 738.43L469.24 803.95L492.04 831.58L534.64 841.05L526.08 863.16H507.14L484.24 880.52L458.19 898.68L451.88 939.73L433.72 972.1L440.82 988.68L525.56 981.57L572.66 942.89L594.48 944.16" stroke="#666666" stroke-width="0.85" stroke-miterlimit="10"/>
<path d="M401.58 756.5C404.651 756.5 407.14 754.011 407.14 750.94C407.14 747.869 404.651 745.38 401.58 745.38C398.509 745.38 396.02 747.869 396.02 750.94C396.02 754.011 398.509 756.5 401.58 756.5Z" fill="#666666"/>
<path d="M463.26 534.41C466.331 534.41 468.82 531.921 468.82 528.85C468.82 525.779 466.331 523.29 463.26 523.29C460.189 523.29 457.7 525.779 457.7 528.85C457.7 531.921 460.189 534.41 463.26 534.41Z" fill="#666666"/>
<path d="M523.21 856.29C526.281 856.29 528.77 853.801 528.77 850.73C528.77 847.659 526.281 845.17 523.21 845.17C520.139 845.17 517.65 847.659 517.65 850.73C517.65 853.801 520.139 856.29 523.21 856.29Z" fill="#666666"/>
<path d="M406.1 1023.37C409.171 1023.37 411.66 1020.88 411.66 1017.81C411.66 1014.74 409.171 1012.25 406.1 1012.25C403.029 1012.25 400.54 1014.74 400.54 1017.81C400.54 1020.88 403.029 1023.37 406.1 1023.37Z" fill="#666666"/>
<path d="M438.33 1572.14C441.401 1572.14 443.89 1569.65 443.89 1566.58C443.89 1563.51 441.401 1561.02 438.33 1561.02C435.259 1561.02 432.77 1563.51 432.77 1566.58C432.77 1569.65 435.259 1572.14 438.33 1572.14Z" fill="#666666"/>
<path d="M330.46 758V750.4C330.46 749.653 330.293 749.133 329.96 748.84C329.64 748.547 329.2 748.4 328.64 748.4H324.9V746.76H329.18C329.847 746.76 330.433 746.887 330.94 747.14C331.46 747.38 331.86 747.773 332.14 748.32C332.433 748.867 332.58 749.593 332.58 750.5V758H330.46ZM324.9 758V756.36H333.96V758H324.9ZM336.064 753.8V752.14V749.1L335.824 746.76H337.944L338.204 749.1V752.14L338.184 753.4L336.064 753.8ZM345.909 758V750.4C345.909 749.653 345.743 749.133 345.409 748.84C345.089 748.547 344.649 748.4 344.089 748.4H340.349V746.76H344.629C345.296 746.76 345.883 746.887 346.389 747.14C346.909 747.38 347.309 747.773 347.589 748.32C347.883 748.867 348.029 749.593 348.029 750.5V758H345.909ZM340.349 758V756.36H349.409V758H340.349ZM361.173 758H358.893L354.673 751.62L352.693 758H350.673L352.873 751.12L353.433 749.72L351.593 746.76H353.753L355.453 749.48L357.133 752L357.633 750.26L358.653 746.76H360.693L358.373 753.84L361.173 758ZM368.856 758L372.596 748.4H366.576V746.76H374.736V748.54L370.996 758H368.856ZM366.576 748.4V743.66H368.496V748.4H366.576ZM376.143 758.3L375.943 756.82C376.476 756.767 376.883 756.66 377.163 756.5C377.443 756.327 377.636 756.087 377.743 755.78C377.85 755.46 377.903 755.067 377.903 754.6V746.76H383.303C383.97 746.76 384.556 746.887 385.063 747.14C385.57 747.38 385.97 747.773 386.263 748.32C386.556 748.867 386.703 749.593 386.703 750.5V758H384.563V750.4C384.563 749.653 384.403 749.133 384.083 748.84C383.763 748.547 383.323 748.4 382.763 748.4H380.023V754.34C380.023 755.233 379.883 755.96 379.603 756.52C379.336 757.067 378.916 757.48 378.343 757.76C377.783 758.04 377.05 758.22 376.143 758.3Z" fill="#666666"/>
<path d="M417.88 536V528.4C417.88 527.653 417.713 527.133 417.38 526.84C417.06 526.547 416.62 526.4 416.06 526.4H411.16V524.76H416.6C417.267 524.76 417.853 524.887 418.36 525.14C418.88 525.38 419.28 525.773 419.56 526.32C419.853 526.867 420 527.593 420 528.5V536H417.88ZM411.1 536V530.58L411.4 529.24H413.22V530.58V536H411.1ZM422.472 536V534.36H426.072C426.512 534.36 426.912 534.3 427.272 534.18C427.646 534.047 427.966 533.847 428.232 533.58C428.499 533.313 428.706 532.973 428.852 532.56C428.999 532.133 429.072 531.627 429.072 531.04V529.7C429.072 529.007 428.979 528.413 428.792 527.92C428.619 527.427 428.339 527.053 427.952 526.8C427.579 526.533 427.099 526.4 426.512 526.4H424.712L424.252 528.38C424.119 529.033 424.146 529.533 424.332 529.88C424.519 530.213 424.946 530.447 425.612 530.58L425.232 531.98C424.366 531.913 423.699 531.72 423.232 531.4C422.779 531.067 422.486 530.633 422.352 530.1C422.232 529.553 422.239 528.927 422.372 528.22L423.152 524.76H426.952C427.846 524.76 428.606 524.96 429.232 525.36C429.872 525.76 430.359 526.333 430.692 527.08C431.039 527.827 431.212 528.727 431.212 529.78V530.94C431.212 531.807 431.092 532.56 430.852 533.2C430.626 533.84 430.299 534.367 429.872 534.78C429.446 535.193 428.946 535.5 428.372 535.7C427.812 535.9 427.199 536 426.532 536H422.472ZM433.509 531.8V530.14V527.1L433.269 524.76H435.389L435.649 527.1V530.14L435.629 531.4L433.509 531.8ZM445.095 536V528.6C445.095 527.133 444.488 526.4 443.275 526.4H438.075V524.76H443.815C444.508 524.76 445.108 524.9 445.615 525.18C446.135 525.46 446.528 525.893 446.795 526.48C447.075 527.053 447.215 527.793 447.215 528.7V536H445.095ZM438.075 536V525.62H440.215V536H438.075Z" fill="#666666"/>
<path d="M456.36 858V850.4C456.36 849.653 456.2 849.133 455.88 848.84C455.56 848.547 455.12 848.4 454.56 848.4H450.62V846.76H455.1C455.767 846.76 456.353 846.887 456.86 847.14C457.367 847.38 457.767 847.773 458.06 848.32C458.353 848.867 458.5 849.593 458.5 850.5V856.52V858H456.36ZM449.8 858V856.36H457.74L457.64 858H449.8ZM449.3 858V848.12V846.76H451.44V848.22V858H449.3ZM461.099 853.8V852.14V849.1L460.859 846.76H462.979L463.239 849.1V852.14L463.219 853.4L461.099 853.8ZM467.524 858L471.264 848.4H465.244V846.76H473.404V848.54L469.664 858H467.524ZM465.244 848.4V843.66H467.164V848.4H465.244ZM476.571 858.2L475.111 846.76H477.151L478.311 856.4C479.324 856.333 480.198 856.147 480.931 855.84C481.678 855.533 482.291 855.113 482.771 854.58C483.251 854.047 483.604 853.393 483.831 852.62C484.058 851.833 484.171 850.94 484.171 849.94L484.131 846.76H486.271L486.291 849.84C486.304 851.707 485.958 853.26 485.251 854.5C484.558 855.74 483.491 856.673 482.051 857.3C480.611 857.913 478.784 858.213 476.571 858.2ZM477.631 853.78L477.131 852.38C477.798 852.127 478.318 851.833 478.691 851.5C479.064 851.153 479.324 850.707 479.471 850.16C479.631 849.6 479.718 848.893 479.731 848.04V846.8H481.751V848C481.738 848.973 481.598 849.827 481.331 850.56C481.078 851.293 480.651 851.92 480.051 852.44C479.464 852.96 478.658 853.407 477.631 853.78ZM488.638 858V849.1L488.398 846.76H490.518L490.778 849.1V858H488.638ZM498.223 858V850.4C498.223 849.653 498.063 849.133 497.743 848.84C497.423 848.547 496.983 848.4 496.423 848.4H492.723V846.76H496.963C497.63 846.76 498.217 846.887 498.723 847.14C499.23 847.38 499.63 847.773 499.923 848.32C500.217 848.867 500.363 849.593 500.363 850.5V858H498.223ZM502.994 853.8V852.14V849.1L502.754 846.76H504.874L505.134 849.1V852.14L505.114 853.4L502.994 853.8Z" fill="#666666"/>
<path d="M326.04 1024.03L325.74 1022.35L329.78 1021.59C330.5 1021.44 331.087 1021.23 331.54 1020.95C331.993 1020.66 332.34 1020.27 332.58 1019.79C332.833 1019.31 333.013 1018.72 333.12 1018.03C333.227 1017.32 333.287 1016.48 333.3 1015.51C333.313 1014.54 333.32 1013.41 333.32 1012.13H335.44C335.44 1013.52 335.413 1014.76 335.36 1015.85C335.307 1016.94 335.187 1017.91 335 1018.75C334.813 1019.58 334.52 1020.29 334.12 1020.89C333.72 1021.49 333.167 1021.99 332.46 1022.39C331.767 1022.79 330.88 1023.09 329.8 1023.29L326.04 1024.03ZM329.18 1021.89L326.66 1012.13H328.8L331.22 1021.89H329.18ZM342.856 1023.37V1015.77C342.856 1015.02 342.689 1014.5 342.356 1014.21C342.036 1013.92 341.596 1013.77 341.036 1013.77H337.296V1012.13H341.576C342.242 1012.13 342.829 1012.26 343.336 1012.51C343.856 1012.75 344.256 1013.14 344.536 1013.69C344.829 1014.24 344.976 1014.96 344.976 1015.87V1023.37H342.856ZM337.296 1023.37V1021.73H346.356V1023.37H337.296ZM349.42 1023.57L347.96 1012.13H350L351.16 1021.77C352.173 1021.7 353.046 1021.52 353.78 1021.21C354.526 1020.9 355.14 1020.48 355.62 1019.95C356.1 1019.42 356.453 1018.76 356.68 1017.99C356.906 1017.2 357.02 1016.31 357.02 1015.31L356.98 1012.13H359.12L359.14 1015.21C359.153 1017.08 358.806 1018.63 358.1 1019.87C357.406 1021.11 356.34 1022.04 354.9 1022.67C353.46 1023.28 351.633 1023.58 349.42 1023.57ZM350.48 1019.15L349.98 1017.75C350.646 1017.5 351.166 1017.2 351.54 1016.87C351.913 1016.52 352.173 1016.08 352.32 1015.53C352.48 1014.97 352.566 1014.26 352.58 1013.41V1012.17H354.6V1013.37C354.586 1014.34 354.446 1015.2 354.18 1015.93C353.926 1016.66 353.5 1017.29 352.9 1017.81C352.313 1018.33 351.506 1018.78 350.48 1019.15ZM370.291 1023.37V1015.77C370.291 1015.02 370.131 1014.5 369.811 1014.21C369.491 1013.92 369.051 1013.77 368.491 1013.77H364.791V1012.13H369.031C369.698 1012.13 370.284 1012.26 370.791 1012.51C371.298 1012.75 371.698 1013.14 371.991 1013.69C372.284 1014.24 372.431 1014.96 372.431 1015.87V1023.37H370.291ZM384.721 1023.37H382.441L378.221 1016.99L376.241 1023.37H374.221L376.421 1016.49L376.981 1015.09L375.141 1012.13H377.301L379.001 1014.85L380.681 1017.37L381.181 1015.63L382.201 1012.13H384.241L381.921 1019.21L384.721 1023.37ZM391.82 1023.37V1015.77C391.82 1015.02 391.654 1014.5 391.32 1014.21C391 1013.92 390.56 1013.77 390 1013.77H386.26V1012.13H390.54C391.207 1012.13 391.794 1012.26 392.3 1012.51C392.82 1012.75 393.22 1013.14 393.5 1013.69C393.794 1014.24 393.94 1014.96 393.94 1015.87V1023.37H391.82ZM386.26 1023.37V1021.73H395.32V1023.37H386.26Z" fill="#666666"/>
<path d="M382.6 1574.3L382.4 1572.82C382.933 1572.77 383.34 1572.66 383.62 1572.5C383.9 1572.33 384.093 1572.09 384.2 1571.78C384.307 1571.46 384.36 1571.07 384.36 1570.6V1562.76H389.76C390.427 1562.76 391.013 1562.89 391.52 1563.14C392.027 1563.38 392.427 1563.77 392.72 1564.32C393.013 1564.87 393.16 1565.59 393.16 1566.5V1574H391.02V1566.4C391.02 1565.65 390.86 1565.13 390.54 1564.84C390.22 1564.55 389.78 1564.4 389.22 1564.4H386.48V1570.34C386.48 1571.23 386.34 1571.96 386.06 1572.52C385.793 1573.07 385.373 1573.48 384.8 1573.76C384.24 1574.04 383.507 1574.22 382.6 1574.3ZM397.403 1574L401.143 1564.4H395.123V1562.76H403.283V1564.54L399.543 1574H397.403ZM395.123 1564.4V1559.66H397.043V1564.4H395.123ZM405.49 1569.8V1568.14V1565.1L405.25 1562.76H407.37L407.63 1565.1V1568.14L407.61 1569.4L405.49 1569.8ZM419.935 1574H417.655L413.435 1567.62L411.455 1574H409.435L411.635 1567.12L412.195 1565.72L410.355 1562.76H412.515L414.215 1565.48L415.895 1568L416.395 1566.26L417.415 1562.76H419.455L417.135 1569.84L419.935 1574Z" fill="#666666"/>
<path d="M562.08 357.19V344.29L561.84 341.95H563.96L564.22 344.29V357.19H562.08ZM566.865 353.19V344.29L566.625 341.95H568.745L569.005 344.29V353.19H566.865ZM571.13 353.19V351.55H574.37V345.29C574.37 344.677 574.25 344.243 574.01 343.99C573.77 343.737 573.437 343.583 573.01 343.53L571.65 343.33L571.93 341.73L573.99 342.01C574.804 342.13 575.424 342.47 575.85 343.03C576.277 343.577 576.49 344.31 576.49 345.23V353.19H571.13ZM584.171 353.19V345.59C584.171 344.843 584.005 344.323 583.671 344.03C583.351 343.737 582.911 343.59 582.351 343.59H578.611V341.95H582.891C583.558 341.95 584.145 342.077 584.651 342.33C585.171 342.57 585.571 342.963 585.851 343.51C586.145 344.057 586.291 344.783 586.291 345.69V353.19H584.171ZM578.611 353.19V351.55H587.671V353.19H578.611ZM591.415 353.19L595.155 343.59H589.135V341.95H597.295V343.73L593.555 353.19H591.415ZM589.135 343.59V338.85H591.055V343.59H589.135Z" fill="#666666"/>
<path d="M765.94 484.01V476.41C765.94 475.663 765.773 475.143 765.44 474.85C765.12 474.557 764.68 474.41 764.12 474.41H759.22V472.77H764.66C765.327 472.77 765.913 472.897 766.42 473.15C766.94 473.39 767.34 473.783 767.62 474.33C767.913 474.877 768.06 475.603 768.06 476.51V484.01H765.94ZM759.16 484.01V478.59L759.46 477.25H761.28V478.59V484.01H759.16ZM770.612 479.81V478.15V475.11L770.372 472.77H772.492L772.752 475.11V478.15L772.732 479.41L770.612 479.81ZM780.198 484.01V476.41C780.198 475.663 780.038 475.143 779.718 474.85C779.398 474.557 778.958 474.41 778.398 474.41H774.698V472.77H778.938C779.604 472.77 780.191 472.897 780.698 473.15C781.204 473.39 781.604 473.783 781.898 474.33C782.191 474.877 782.338 475.603 782.338 476.51V484.01H780.198ZM784.968 484.01V475.11L784.728 472.77H786.848L787.108 475.11V484.01H784.968ZM790.613 484.21L789.453 474.41L791.473 473.39L792.493 482.29C793.053 482.237 793.566 482.15 794.033 482.03C794.5 481.897 794.913 481.71 795.273 481.47C795.646 481.23 795.953 480.93 796.193 480.57C796.446 480.21 796.633 479.777 796.753 479.27C796.873 478.75 796.92 478.15 796.893 477.47V476.93C796.893 476.437 796.813 476.003 796.653 475.63C796.493 475.257 796.26 474.963 795.953 474.75C795.646 474.523 795.273 474.41 794.833 474.41H789.453L789.253 472.77H795.013C796.266 472.77 797.226 473.143 797.893 473.89C798.573 474.637 798.933 475.637 798.973 476.89L798.993 477.51C799.033 478.737 798.853 479.77 798.453 480.61C798.053 481.45 797.473 482.123 796.713 482.63C795.953 483.137 795.053 483.517 794.013 483.77C792.973 484.01 791.84 484.157 790.613 484.21Z" fill="#666666"/>
<path d="M688.36 964.43V951.53L688.12 949.19H690.24L690.5 951.53V964.43H688.36ZM697.485 960.43V953.17C697.485 952.65 697.532 952.197 697.625 951.81C697.732 951.41 697.872 951.083 698.045 950.83H692.645V949.19H701.565V950.83H700.045C699.872 951.163 699.752 951.55 699.685 951.99C699.632 952.417 699.605 952.81 699.605 953.17V960.43H697.485ZM708.707 960.43V952.83C708.707 952.083 708.547 951.563 708.227 951.27C707.907 950.977 707.467 950.83 706.907 950.83H703.207V949.19H707.447C708.114 949.19 708.7 949.317 709.207 949.57C709.714 949.81 710.114 950.203 710.407 950.75C710.7 951.297 710.847 952.023 710.847 952.93V960.43H708.707ZM713.477 956.23V954.57V951.53L713.237 949.19H715.357L715.617 951.53V954.57L715.597 955.83L713.477 956.23Z" fill="#666666"/>
<path d="M497.66 1711.75L497.46 1710.27C497.993 1710.22 498.4 1710.11 498.68 1709.95C498.96 1709.78 499.153 1709.54 499.26 1709.23C499.367 1708.91 499.42 1708.52 499.42 1708.05V1700.21H504.82C505.487 1700.21 506.073 1700.34 506.58 1700.59C507.087 1700.83 507.487 1701.22 507.78 1701.77C508.073 1702.32 508.22 1703.04 508.22 1703.95V1711.45H506.08V1703.85C506.08 1703.1 505.92 1702.58 505.6 1702.29C505.28 1702 504.84 1701.85 504.28 1701.85H501.54V1707.79C501.54 1708.68 501.4 1709.41 501.12 1709.97C500.853 1710.52 500.433 1710.93 499.86 1711.21C499.3 1711.49 498.567 1711.67 497.66 1711.75ZM510.823 1707.25V1705.59V1702.55L510.583 1700.21H512.703L512.963 1702.55V1705.59L512.943 1706.85L510.823 1707.25ZM519.948 1711.45V1704.19C519.948 1703.67 519.995 1703.22 520.088 1702.83C520.195 1702.43 520.335 1702.1 520.508 1701.85H515.108V1700.21H524.028V1701.85H522.508C522.335 1702.18 522.215 1702.57 522.148 1703.01C522.095 1703.44 522.068 1703.83 522.068 1704.19V1711.45H519.948ZM526.37 1711.45V1702.55L526.13 1700.21H528.25L528.51 1702.55V1711.45H526.37ZM530.415 1712.11L530.115 1710.43L534.155 1709.67C534.875 1709.52 535.462 1709.31 535.915 1709.03C536.369 1708.74 536.715 1708.35 536.955 1707.87C537.209 1707.39 537.389 1706.8 537.495 1706.11C537.602 1705.4 537.662 1704.56 537.675 1703.59C537.689 1702.62 537.695 1701.49 537.695 1700.21H539.815C539.815 1701.6 539.789 1702.84 539.735 1703.93C539.682 1705.02 539.562 1705.99 539.375 1706.83C539.189 1707.66 538.895 1708.37 538.495 1708.97C538.095 1709.57 537.542 1710.07 536.835 1710.47C536.142 1710.87 535.255 1711.17 534.175 1711.37L530.415 1712.11ZM533.555 1709.97L531.035 1700.21H533.175L535.595 1709.97H533.555ZM543.031 1711.65L541.871 1701.85L543.891 1700.83L544.911 1709.73C545.471 1709.68 545.984 1709.59 546.451 1709.47C546.918 1709.34 547.331 1709.15 547.691 1708.91C548.064 1708.67 548.371 1708.37 548.611 1708.01C548.864 1707.65 549.051 1707.22 549.171 1706.71C549.291 1706.19 549.338 1705.59 549.311 1704.91V1704.37C549.311 1703.88 549.231 1703.44 549.071 1703.07C548.911 1702.7 548.678 1702.4 548.371 1702.19C548.064 1701.96 547.691 1701.85 547.251 1701.85H541.871L541.671 1700.21H547.431C548.684 1700.21 549.644 1700.58 550.311 1701.33C550.991 1702.08 551.351 1703.08 551.391 1704.33L551.411 1704.95C551.451 1706.18 551.271 1707.21 550.871 1708.05C550.471 1708.89 549.891 1709.56 549.131 1710.07C548.371 1710.58 547.471 1710.96 546.431 1711.21C545.391 1711.45 544.258 1711.6 543.031 1711.65ZM560.292 1711.45V1703.85C560.292 1703.1 560.125 1702.58 559.792 1702.29C559.472 1702 559.032 1701.85 558.472 1701.85H553.572V1700.21H559.012C559.678 1700.21 560.265 1700.34 560.772 1700.59C561.292 1700.83 561.692 1701.22 561.972 1701.77C562.265 1702.32 562.412 1703.04 562.412 1703.95V1711.45H560.292ZM553.512 1711.45V1706.03L553.812 1704.69H555.632V1706.03V1711.45H553.512ZM574.028 1711.45V1703.85C574.028 1703.1 573.861 1702.58 573.528 1702.29C573.208 1702 572.768 1701.85 572.208 1701.85H568.468V1700.21H572.748C573.415 1700.21 574.001 1700.34 574.508 1700.59C575.028 1700.83 575.428 1701.22 575.708 1701.77C576.001 1702.32 576.148 1703.04 576.148 1703.95V1711.45H574.028ZM568.468 1711.45V1709.81H577.528V1711.45H568.468ZM583.826 1711.45V1703.85C583.826 1703.1 583.666 1702.58 583.346 1702.29C583.026 1702 582.586 1701.85 582.026 1701.85H578.326V1700.21H582.566C583.233 1700.21 583.82 1700.34 584.326 1700.59C584.833 1700.83 585.233 1701.22 585.526 1701.77C585.82 1702.32 585.966 1703.04 585.966 1703.95V1711.45H583.826ZM587.857 1712.11L587.557 1710.43L591.597 1709.67C592.317 1709.52 592.903 1709.31 593.357 1709.03C593.81 1708.74 594.157 1708.35 594.397 1707.87C594.65 1707.39 594.83 1706.8 594.937 1706.11C595.043 1705.4 595.103 1704.56 595.117 1703.59C595.13 1702.62 595.137 1701.49 595.137 1700.21H597.257C597.257 1701.6 597.23 1702.84 597.177 1703.93C597.123 1705.02 597.003 1705.99 596.817 1706.83C596.63 1707.66 596.337 1708.37 595.937 1708.97C595.537 1709.57 594.983 1710.07 594.277 1710.47C593.583 1710.87 592.697 1711.17 591.617 1711.37L587.857 1712.11ZM590.997 1709.97L588.477 1700.21H590.617L593.037 1709.97H590.997Z" fill="#666666"/>
<path d="M236.36 1249.62V1242.02C236.36 1241.27 236.2 1240.75 235.88 1240.46C235.56 1240.17 235.12 1240.02 234.56 1240.02H230.62V1238.38H235.1C235.767 1238.38 236.353 1238.51 236.86 1238.76C237.367 1239 237.767 1239.39 238.06 1239.94C238.353 1240.49 238.5 1241.21 238.5 1242.12V1248.14V1249.62H236.36ZM229.8 1249.62V1247.98H237.74L237.64 1249.62H229.8ZM229.3 1249.62V1239.74V1238.38H231.44V1239.84V1249.62H229.3ZM241.099 1245.42V1243.76V1240.72L240.859 1238.38H242.979L243.239 1240.72V1243.76L243.219 1245.02L241.099 1245.42ZM250.684 1249.62V1242.02C250.684 1241.27 250.524 1240.75 250.204 1240.46C249.884 1240.17 249.444 1240.02 248.884 1240.02H245.184V1238.38H249.424C250.091 1238.38 250.678 1238.51 251.184 1238.76C251.691 1239 252.091 1239.39 252.384 1239.94C252.678 1240.49 252.824 1241.21 252.824 1242.12V1249.62H250.684ZM261.615 1249.62L255.075 1238.38H257.235L263.775 1249.62H261.615ZM254.755 1249.62V1247.98H262.515L263.135 1249.62H254.755ZM260.875 1245.04L259.675 1243.2L261.695 1238.38H263.815L260.875 1245.04ZM269.798 1249.66L269.998 1248.02C271.051 1248.25 271.891 1248.23 272.518 1247.96C273.144 1247.69 273.591 1247.21 273.858 1246.5C274.138 1245.78 274.264 1244.86 274.238 1243.74C274.224 1242.79 274.104 1242.05 273.878 1241.5C273.664 1240.94 273.364 1240.54 272.978 1240.3C272.604 1240.06 272.158 1239.94 271.638 1239.94C271.171 1239.94 270.771 1240.04 270.438 1240.24C270.104 1240.43 269.838 1240.69 269.638 1241.02C269.438 1241.35 269.298 1241.73 269.218 1242.14L268.678 1241.14C268.931 1240.13 269.364 1239.39 269.978 1238.94C270.604 1238.47 271.291 1238.24 272.038 1238.24C272.664 1238.24 273.231 1238.35 273.738 1238.56C274.258 1238.76 274.704 1239.08 275.078 1239.52C275.451 1239.96 275.738 1240.53 275.938 1241.24C276.151 1241.93 276.264 1242.77 276.278 1243.74C276.304 1245.25 276.064 1246.49 275.558 1247.48C275.051 1248.47 274.311 1249.15 273.338 1249.54C272.364 1249.93 271.184 1249.97 269.798 1249.66ZM265.798 1249.62L267.238 1241.88L265.678 1238.38H267.878L269.258 1241.96L267.938 1249.62H265.798Z" fill="#666666"/>
<path d="M270.12 664.4V651.5L269.88 649.16H272L272.26 651.5V664.4H270.12ZM274.905 660.4V651.5L274.665 649.16H276.785L277.045 651.5V660.4H274.905ZM279.05 660.4V658.76H281.93C282.584 658.76 283.117 658.633 283.53 658.38C283.944 658.113 284.25 657.733 284.45 657.24C284.65 656.733 284.75 656.14 284.75 655.46V654.1C284.75 653.407 284.65 652.813 284.45 652.32C284.25 651.827 283.944 651.453 283.53 651.2C283.117 650.933 282.584 650.8 281.93 650.8H279.05V649.16H282.45C283.41 649.16 284.217 649.36 284.87 649.76C285.537 650.16 286.037 650.74 286.37 651.5C286.717 652.247 286.89 653.147 286.89 654.2V655.36C286.89 656.427 286.717 657.34 286.37 658.1C286.037 658.847 285.537 659.42 284.87 659.82C284.217 660.207 283.41 660.4 282.45 660.4H279.05ZM289.222 656.2V654.54V651.5L288.982 649.16H291.102L291.362 651.5V654.54L291.342 655.8L289.222 656.2ZM292.914 660.7L292.714 659.22C293.247 659.167 293.654 659.06 293.934 658.9C294.214 658.727 294.407 658.487 294.514 658.18C294.62 657.86 294.674 657.467 294.674 657V649.16H300.074C300.74 649.16 301.327 649.287 301.834 649.54C302.34 649.78 302.74 650.173 303.034 650.72C303.327 651.267 303.474 651.993 303.474 652.9V660.4H301.334V652.8C301.334 652.053 301.174 651.533 300.854 651.24C300.534 650.947 300.094 650.8 299.534 650.8H296.794V656.74C296.794 657.633 296.654 658.36 296.374 658.92C296.107 659.467 295.687 659.88 295.114 660.16C294.554 660.44 293.82 660.62 292.914 660.7ZM312.557 660.4V652.8C312.557 652.053 312.39 651.533 312.057 651.24C311.737 650.947 311.297 650.8 310.737 650.8H305.837V649.16H311.277C311.944 649.16 312.53 649.287 313.037 649.54C313.557 649.78 313.957 650.173 314.237 650.72C314.53 651.267 314.677 651.993 314.677 652.9V660.4H312.557ZM305.777 660.4V654.98L306.077 653.64H307.897V654.98V660.4H305.777ZM328.193 660.4V652.8C328.193 652.053 328.033 651.533 327.713 651.24C327.393 650.947 326.953 650.8 326.393 650.8H322.453V649.16H326.933C327.6 649.16 328.187 649.287 328.693 649.54C329.2 649.78 329.6 650.173 329.893 650.72C330.187 651.267 330.333 651.993 330.333 652.9V658.92V660.4H328.193ZM321.633 660.4V658.76H329.573L329.473 660.4H321.633ZM321.133 660.4V650.52V649.16H323.273V650.62V660.4H321.133ZM332.932 656.2V654.54V651.5L332.692 649.16H334.812L335.072 651.5V654.54L335.052 655.8L332.932 656.2ZM344.198 660.4V652.8C344.198 652.053 344.031 651.533 343.698 651.24C343.378 650.947 342.938 650.8 342.378 650.8H337.478V649.16H342.918C343.584 649.16 344.171 649.287 344.678 649.54C345.198 649.78 345.598 650.173 345.878 650.72C346.171 651.267 346.318 651.993 346.318 652.9V660.4H344.198ZM337.418 660.4V654.98L337.718 653.64H339.538V654.98V660.4H337.418Z" fill="#050D1A"/>
<path d="M403.268 1716L395.969 1713.88C395.252 1713.68 394.708 1713.69 394.337 1713.91C393.966 1714.14 393.703 1714.52 393.547 1715.06L392.449 1718.84L390.874 1718.38L392.122 1714.08C392.308 1713.44 392.593 1712.91 392.977 1712.5C393.349 1712.08 393.838 1711.8 394.445 1711.67C395.051 1711.54 395.79 1711.6 396.661 1711.86L402.443 1713.53L403.864 1713.95L403.268 1716ZM401.441 1722.3L399.866 1721.84L402.077 1714.22L403.625 1714.77L401.441 1722.3ZM401.302 1722.78L391.813 1720.03L390.507 1719.65L391.103 1717.6L392.505 1718L401.898 1720.73L401.302 1722.78ZM404.588 1711.45L396.04 1708.97L393.726 1708.55L394.316 1706.51L396.636 1706.92L405.184 1709.39L404.588 1711.45ZM407.129 1702.68L400.156 1700.66C399.657 1700.52 399.235 1700.35 398.889 1700.15C398.535 1699.94 398.26 1699.71 398.065 1699.47L396.561 1704.66L394.986 1704.2L397.47 1695.64L399.045 1696.09L398.622 1697.55C398.894 1697.81 399.232 1698.03 399.636 1698.22C400.031 1698.39 400.401 1698.53 400.747 1698.63L407.72 1700.65L407.129 1702.68ZM411.608 1687.24L410.973 1689.43L403.67 1691.71L409.246 1695.38L408.684 1697.32L402.689 1693.29L401.5 1692.37L398.145 1693.31L398.746 1691.24L401.832 1690.36L404.72 1689.45L403.188 1688.48L400.111 1686.53L400.679 1684.57L406.833 1688.77L411.608 1687.24ZM413.98 1679.06L406.681 1676.94C405.964 1676.73 405.418 1676.75 405.043 1676.99C404.673 1677.21 404.409 1677.59 404.253 1678.13L402.889 1682.84L401.314 1682.38L402.828 1677.16C403.014 1676.52 403.299 1675.99 403.684 1675.57C404.059 1675.14 404.548 1674.86 405.151 1674.75C405.758 1674.62 406.497 1674.68 407.367 1674.93L414.571 1677.02L413.98 1679.06ZM412.092 1685.57L406.887 1684.06L405.683 1683.4L406.19 1681.65L407.477 1682.02L412.683 1683.53L412.092 1685.57ZM418.335 1664.04L411.035 1661.92C410.318 1661.71 409.774 1661.72 409.404 1661.95C409.033 1662.18 408.769 1662.56 408.613 1663.09L407.516 1666.88L405.941 1666.42L407.189 1662.12C407.374 1661.48 407.659 1660.95 408.044 1660.53C408.415 1660.12 408.904 1659.84 409.511 1659.71C410.118 1659.58 410.857 1659.64 411.727 1659.9L417.509 1661.57L418.931 1661.98L418.335 1664.04ZM416.508 1670.34L414.933 1669.88L417.144 1662.26L418.691 1662.81L416.508 1670.34ZM416.369 1670.82L406.88 1668.07L405.573 1667.69L406.169 1665.63L407.572 1666.04L416.965 1668.76L416.369 1670.82ZM415.621 1658.32L414.026 1657.86L411.107 1657.01L408.792 1656.59L409.383 1654.55L411.703 1654.95L414.622 1655.8L415.827 1656.17L415.621 1658.32ZM422.792 1648.67L415.492 1646.55C414.775 1646.34 414.23 1646.36 413.855 1646.6C413.484 1646.82 413.221 1647.2 413.065 1647.74L411.7 1652.45L410.125 1651.99L411.64 1646.77C411.826 1646.13 412.111 1645.6 412.495 1645.18C412.87 1644.75 413.36 1644.48 413.963 1644.36C414.569 1644.23 415.308 1644.29 416.179 1644.54L423.382 1646.63L422.792 1648.67ZM420.904 1655.18L415.698 1653.67L414.495 1653.01L415.002 1651.26L416.288 1651.63L421.494 1653.14L420.904 1655.18Z" fill="#050D1A"/>
<path d="M610.91 521.15C610.91 521.15 595.7 504.83 628.72 492.21L642.07 501.48C642.07 501.48 643.18 530.58 640.59 533.84C638 537.1 631.32 549.71 631.32 549.71C631.32 549.71 625.01 559.36 622.79 543.77C620.57 528.18 610.92 521.14 610.92 521.14L610.91 521.15Z" fill="#0A2647"/>
<path d="M607.94 850.73L625 860.21L619.81 894.34L613.13 911.03L616.47 942.56L622.78 954.43L622.41 967.98L614.62 975.2V985.22C614.62 985.22 609.8 1004.14 606.46 991.16C603.12 978.18 592.37 980.21 592.37 980.21C592.37 980.21 594.3 1003.81 586.79 1005.25C579.28 1006.69 579 1019.72 579 1019.72L593.1 1029.37L602 1031.97C602 1031.97 614.24 1035.68 610.16 1044.21C606.08 1052.74 606.08 1062.39 606.08 1062.39L596.81 1073.15L589.02 1076.12L581.02 1084.85L577.78 1118.1C577.78 1118.1 567.71 1131.94 565.75 1124.99C563.79 1118.04 561.57 1108.76 561.57 1108.76L569.36 1098L564.91 1090.95L575.67 1079.08L573.07 1067.95L571.96 1053.85L563.43 1051.62V1028.25L574.95 1015.49L578.27 1003.5L581.98 999.69L580.87 988.83L581.24 971.49L573.08 960.41L574.56 933.28C574.56 933.28 582.35 920.3 581.24 914.73C580.13 909.16 587.92 889.5 587.92 889.5C587.92 889.5 583.47 876.15 587.18 870.58C590.89 865.01 597.2 854.59 607.95 850.72L607.94 850.73Z" fill="#0A2647"/>
</g>
</g>
<defs>
<clipPath id="clip0_1_3">
<rect width="1080" height="1920" fill="white"/>
</clipPath>
<clipPath id="clip1_1_3">
<rect width="1755.59" height="1920.85" fill="white" transform="translate(-184)"/>
</clipPath>
</defs>
</svg>
